<?xml version="1.0" encoding="UTF-8"?> <svg xmlns="http://www.w3.org/2000/svg" viewBox="0 0 120 29.61"><defs><style>.cls-1{fill:#20285c;}</style></defs><title>Medeo Header logo</title><g id="Layer_2" data-name="Layer 2"><g id="content"><path class="cls-1" d="M59,23.33q1.13,4.4,4.59,4.39a4.24,4.24,0,0,0,2.76-1c1.91-1.53,2.86-4.23,2.86-8.12a13.57,13.57,0,0,0-.56-4.09q-1.22-3.81-4.55-3.81a4.56,4.56,0,0,0-2.34.63c-2.12,1.26-3.19,4-3.19,8.12A15.66,15.66,0,0,0,59,23.33M73.7,29.16H69.2V24.63l-.18.45a7.28,7.28,0,0,1-7,4.53,7.8,7.8,0,0,1-4.64-1.48c-2.47-1.77-3.7-4.47-3.7-8.12a11.78,11.78,0,0,1,1.92-6.69,8.73,8.73,0,0,1,7.59-3.9,8.24,8.24,0,0,1,6,2.24V0H73.7V29.16Z"></path><path class="cls-1" d="M104.3,22.21c.44,4.18,2.22,6.28,5.34,6.28q5.3-.09,5.39-9.15a25.82,25.82,0,0,0-.18-3.19c-.54-3.71-2.28-5.56-5.25-5.56q-5,.36-5.44,8.92a24.52,24.52,0,0,0,.14,2.7m11.58-11a9.27,9.27,0,0,1,4.12,8.2,9.83,9.83,0,0,1-2.58,6.87,10.26,10.26,0,0,1-7.92,3.32,10.41,10.41,0,0,1-6.28-2,9.57,9.57,0,0,1-4-8.29,9.34,9.34,0,0,1,2.49-6.6,10.48,10.48,0,0,1,8.06-3.27,10.93,10.93,0,0,1,6.14,1.75"></path><polygon class="cls-1" points="23.48 2.24 14.1 23.15 3.65 2.24 0 2.24 0 29.16 1.92 29.16 1.92 27.99 1.92 9.6 12.04 29.47 12.98 29.47 23.48 6.46 23.48 27.99 23.48 29.16 28.3 29.16 28.3 27.99 28.3 2.24 23.48 2.24"></polygon><path class="cls-1" d="M40.57,10.9a4.13,4.13,0,0,1,1.64-.31A3.59,3.59,0,0,1,46,13.5a6.48,6.48,0,0,1,.24,1.75,2.45,2.45,0,0,1-1.93,2.69,11.09,11.09,0,0,1-3,.18L37.1,18q.18-5.73,3.47-7.13M48.34,26a6.58,6.58,0,0,1-3.65,2.13,6.41,6.41,0,0,1-1.5.18q-5.86,0-6.09-9v-.09l5.11.09c4.27.09,6.95-.4,8-1.48A3.15,3.15,0,0,0,51,15.75c0-2.25-1.17-3.95-3.52-5.12a11.65,11.65,0,0,0-5.29-1.16q-5.58,0-8.3,4.08a10.68,10.68,0,0,0-1.73,6.05q0,6,4.55,8.57a11,11,0,0,0,5.62,1.44q4.94,0,7.3-3.16Z"></path><path class="cls-1" d="M86.3,10.9a4.2,4.2,0,0,1,1.64-.31,3.59,3.59,0,0,1,3.8,2.91A6.89,6.89,0,0,1,92,15.25a2.45,2.45,0,0,1-1.92,2.69,11.09,11.09,0,0,1-3,.18L82.84,18c.12-3.82,1.28-6.2,3.46-7.13M94.08,26a6.62,6.62,0,0,1-3.65,2.13,6.41,6.41,0,0,1-1.5.18q-5.87,0-6.09-9v-.09l5.1.09q6.42.14,8-1.48a3.15,3.15,0,0,0,.75-2.15c0-2.25-1.18-3.95-3.52-5.12A11.68,11.68,0,0,0,87.9,9.47q-5.58,0-8.3,4.08a10.68,10.68,0,0,0-1.73,6.05q0,6,4.54,8.57A11,11,0,0,0,88,29.61q4.93,0,7.3-3.16Z"></path></g></g></svg> 